<?xml version="1.0" encoding="utf-8"?>
<!-- Generator: Adobe Illustrator 23.1.0, SVG Export Plug-In . SVG Version: 6.00 Build 0)  -->
<svg version="1.1" id="Layer_1" xmlns="http://www.w3.org/2000/svg" xmlns:xlink="http://www.w3.org/1999/xlink" x="0px" y="0px"
	 viewBox="0 0 24 24" style="enable-background:new 0 0 24 24;" xml:space="preserve">
<style type="text/css">
	.st0{fill:#303c46;}
	.st1{fill:none;stroke:#303c46;stroke-linecap:round;stroke-linejoin:round;stroke-miterlimit:10;}
</style>
<g>
	<g>
		<path class="st0" d="M8.08,6.71c1.18,0,2.39,0.29,3.5,0.84c0.14,0.07,0.29,0.1,0.44,0.1c0.15,0,0.3-0.03,0.44-0.1
			c1.11-0.55,2.32-0.84,3.5-0.84c0.19,0,0.39,0.01,0.59,0.02c1.23,0.1,3.5,0.53,4.81,2.33c0.31,0.42,0.58,0.99,0.77,1.63
			c1.07,3.48-0.39,8.09-3.4,10.73c-0.79,0.7-1.78,1.56-3.07,1.58c-0.51,0-0.83-0.14-1.28-0.34c-0.56-0.25-1.26-0.57-2.38-0.57
			c-1.11,0-1.81,0.32-2.38,0.57C9.2,22.86,8.88,23,8.34,23c0,0,0,0,0,0c-1.22-0.01-2.19-0.85-3.05-1.58
			c-3.1-2.67-4.56-7.31-3.4-10.8c0.2-0.6,0.47-1.13,0.78-1.55c1.35-1.81,3.6-2.24,4.82-2.34C7.69,6.71,7.89,6.71,8.08,6.71
			 M8.08,5.71c-0.22,0-0.45,0.01-0.68,0.03c-0.58,0.05-3.72,0.3-5.54,2.74C1.71,8.68,1.28,9.29,0.94,10.3
			c-1.29,3.86,0.32,8.97,3.69,11.87c0.94,0.81,2.11,1.81,3.69,1.83c0.01,0,0.02,0,0.03,0c1.51,0,1.93-0.91,3.66-0.91
			c1.73,0,2.14,0.91,3.65,0.91c0.01,0,0.03,0,0.04,0c1.64-0.02,2.85-1.08,3.69-1.83c3.33-2.93,4.88-7.92,3.69-11.78
			c-0.33-1.08-0.76-1.7-0.92-1.92c-1.78-2.44-4.94-2.69-5.54-2.74c-0.23-0.02-0.46-0.03-0.67-0.03c-1.78,0-3.18,0.56-3.94,0.94
			C11.26,6.27,9.87,5.71,8.08,5.71L8.08,5.71z"/>
	</g>
	<g>
		<path class="st0" d="M15.9,1L15.9,1c0.53,0,0.96,0.09,1.23,0.18c-0.35,0.42-1.4,1.37-4.49,3.18c-0.02-0.21-0.03-0.44,0-0.68
			c0.07-0.72,0.31-1.35,0.68-1.75C13.83,1.34,14.79,1,15.9,1 M15.9,0c-1.18,0-2.52,0.35-3.33,1.25c-0.79,0.87-0.9,2.07-0.93,2.33
			c-0.1,1.06,0.2,1.89,0.38,2.29c5.54-3.12,6.47-4.43,6.24-5.04C18.08,0.34,17.07,0,15.9,0L15.9,0z"/>
	</g>
</g>
<path class="st1" d="M8.11,20.79"/>
<path class="st1" d="M17.86,8.87"/>
<path class="st1" d="M7.05,8.77c-0.43,0.17-1.84,0.78-2.73,2.36c-1.06,1.88-0.59,3.72-0.49,4.09"/>
</svg>
