<?xml version="1.0" encoding="utf-8"?>
<!-- Generator: Adobe Illustrator 24.0.1, SVG Export Plug-In . SVG Version: 6.00 Build 0)  -->
<svg version="1.1" id="Layer_1" xmlns="http://www.w3.org/2000/svg" xmlns:xlink="http://www.w3.org/1999/xlink" x="0px" y="0px"
	 viewBox="0 0 24 24" style="enable-background:new 0 0 24 24;" xml:space="preserve">
<style type="text/css">
	.st0{fill:#303C46;}
	.st1{fill:none;stroke:#303C46;stroke-linecap:round;stroke-linejoin:round;stroke-miterlimit:10;}
	.st2{fill:none;stroke:#303C46;stroke-width:0.25;stroke-miterlimit:10;}
</style>
<g>
	<path class="st0" d="M18.9,3.8l3.8,17.9c-0.3,0-0.5,0-0.8,0c-0.4,0-0.8,0-1.2,0.1c-0.7,0.1-1.3,0.4-1.9,0.8L15,4.6
		c0.3,0,0.5,0,0.8,0c0.4,0,0.9,0,1.3-0.1C17.7,4.3,18.3,4.1,18.9,3.8 M19.2,2.5c-0.1,0-0.2,0-0.3,0.1c-0.5,0.4-1.1,0.7-2,0.9
		c-0.4,0.1-0.7,0.1-1.1,0.1c-0.5,0-0.9-0.1-1.2-0.2h-0.1c-0.3,0-0.6,0.3-0.5,0.7l4.1,19.2c0.1,0.3,0.3,0.4,0.5,0.4
		c0.1,0,0.2,0,0.3-0.1c0.5-0.4,1.2-0.8,2.1-1c0.3-0.1,0.7-0.1,1-0.1c0.5,0,0.9,0.1,1.2,0.2h0.1c0.3,0,0.6-0.3,0.5-0.6L19.7,2.9
		C19.7,2.6,19.4,2.5,19.2,2.5L19.2,2.5z"/>
	<g>
		<path class="st0" d="M10,0.3v1c0.7,0,1.3,0.2,1.9,0.5L12,1.9v20.3c0,0.1,0,0.1-0.1,0.1c-0.6,0.3-1.3,0.5-1.9,0.5
			c-0.7,0-1.3-0.2-1.9-0.5L8,22.2V1.9c0-0.1,0-0.1,0.1-0.1C8.7,1.4,9.4,1.2,10,1.2V0.3 M10,0.3c-1,0-1.8,0.3-2.4,0.6
			C7.2,1.1,7,1.5,7,1.9v20.3c0,0.4,0.2,0.8,0.6,1c0.5,0.3,1.4,0.6,2.4,0.6l0,0c1,0,1.8-0.3,2.4-0.6c0.4-0.2,0.6-0.6,0.6-1V1.9
			c0-0.4-0.2-0.8-0.6-1C11.9,0.6,11,0.3,10,0.3L10,0.3L10,0.3z"/>
	</g>
	<line class="st1" x1="8.9" y1="4.2" x2="11.1" y2="4.2"/>
	<line class="st1" x1="8.9" y1="19.9" x2="11.2" y2="19.9"/>
	<g>
		<path class="st0" d="M3.1,0.2v1c0.7,0,1.3,0.2,1.9,0.5l0.1,0.1v20.3c0,0.1,0,0.1-0.1,0.1c-0.6,0.3-1.3,0.5-1.9,0.5
			c-0.7,0-1.3-0.2-1.9-0.5l-0.1-0.1V1.8c0-0.1,0-0.1,0.1-0.1c0.6-0.3,1.3-0.5,1.9-0.5V0.2 M3.1,0.2c-1,0-1.8,0.3-2.4,0.6
			C0.4,1,0.1,1.4,0.1,1.8v20.3c0,0.4,0.2,0.8,0.6,1c0.6,0.3,1.4,0.6,2.4,0.6l0,0c1,0,1.8-0.3,2.4-0.6c0.4-0.2,0.6-0.6,0.6-1V1.8
			c0-0.4-0.2-0.8-0.6-1C4.9,0.5,4.1,0.2,3.1,0.2L3.1,0.2L3.1,0.2z"/>
	</g>
	<line class="st1" x1="2" y1="4.1" x2="4.2" y2="4.1"/>
	<line class="st1" x1="1.9" y1="19.8" x2="4.3" y2="19.8"/>
	<g>
		<line class="st2" x1="21.5" y1="20.6" x2="18.2" y2="5.2"/>
		<line class="st2" x1="20.5" y1="20.8" x2="17.2" y2="5.4"/>
		<line class="st2" x1="19.6" y1="21" x2="16.3" y2="5.7"/>
	</g>
</g>
</svg>
