<?xml version="1.0" encoding="utf-8"?>
<!-- Generator: Adobe Illustrator 24.0.1, SVG Export Plug-In . SVG Version: 6.00 Build 0)  -->
<svg version="1.1" id="Layer_1" xmlns="http://www.w3.org/2000/svg" xmlns:xlink="http://www.w3.org/1999/xlink" x="0px" y="0px"
	 viewBox="0 0 24 24" style="enable-background:new 0 0 24 24;" xml:space="preserve">
<style type="text/css">
	.st0{fill:none;stroke:#303c46;stroke-linecap:square;stroke-linejoin:round;stroke-miterlimit:10;}
	.st1{fill:#303c46;}
	.st2{fill:none;stroke:#303c46;stroke-linecap:round;stroke-linejoin:round;stroke-miterlimit:10;}
</style>
<g>
	<path class="st0" d="M13.4,20.7"/>
	<path class="st0" d="M12.2,11.9"/>
	<g>
		<path class="st1" d="M8.4,1.1c0.4,0,0.6,0.1,0.7,0.1c0.2,0.1,0.4,0.2,0.4,0.2s0.3,0.2,0.6,0.3c0.5,0.4,0.8,3.4,0.6,6.2
			c-0.2,2.2-0.1,4.3-0.1,6.1c0.1,2.9,0.1,5.4-0.6,7.2c-0.3,0.9-0.7,1.2-1.1,1.3c-0.3,0.1-0.6,0.2-1,0.2c-1,0-2.1-0.6-2.5-0.8
			c-0.6-0.3-1.1-0.7-1.3-1.3c-0.1-0.5,0-0.9,0.1-1.3c0.1-0.3,0.1-0.6,0-0.8c-0.1-0.3-0.4-0.4-0.7-0.5c-0.6-0.1-0.9-0.3-1.1-0.5
			c-0.4-0.4-0.5-1-0.5-2c0-0.8,0.1-1.3,0.2-1.5c0.1-0.3,0.2-0.5,0.4-0.7c0.1-0.2,0.2-0.5,0.1-0.8c0-0.3-0.2-0.5-0.4-0.6
			c-0.3-0.2-0.5-0.4-0.7-0.7c-0.5-0.8-0.5-2,0-2.8c0.2-0.3,0.4-0.5,0.7-0.7s0.5-0.6,0.4-1c-0.1-0.5-0.1-1,0-1.6
			C2.7,4.9,2.9,4.4,3.2,4c0.2-0.3,0.4-0.6,0.7-0.9C4.2,2.7,4.6,2.4,5,2.2c0.2-0.1,0.5-0.1,0.7-0.1c0.1,0,0.3,0,0.4,0s0.1,0,0.2,0
			C6.6,2.1,6.8,2,7,1.8c0.1-0.2,0.4-0.4,0.7-0.5C8,1.2,8.2,1.1,8.4,1.1 M8.4,0.1c-0.3,0-0.7,0-1,0.2c-0.6,0.2-1,0.6-1.1,0.8
			c-0.2,0-0.4,0-0.6,0c-0.5,0-0.9,0.1-1.1,0.2C3.9,1.5,3.5,2,3.1,2.4S2.5,3.3,2.3,3.5C2.1,3.9,1.8,4.4,1.7,5.2
			C1.5,6,1.6,6.7,1.7,7.1C1.4,7.3,1,7.6,0.7,8C0,9.2,0,10.8,0.7,11.9c0.3,0.5,0.7,0.8,1,1c-0.1,0.2-0.3,0.5-0.5,0.9
			c-0.1,0.2-0.3,0.9-0.3,1.9c0,0.9,0.1,1.9,0.8,2.6c0.2,0.2,0.7,0.7,1.6,0.8c-0.1,0.3-0.4,1.1-0.1,1.9c0.3,1,1.1,1.5,1.8,1.9
			c0.2,0.1,1.6,0.9,3,0.9c0.5,0,1-0.1,1.4-0.3c0.5-0.3,1.1-0.7,1.5-1.9c1.2-3.3,0.3-8.1,0.7-13.6c0,0,0.4-6.2-1-7.1
			c-0.3-0.2-0.7-0.4-0.7-0.4S9.7,0.4,9.5,0.3S8.9,0.1,8.4,0.1L8.4,0.1z"/>
	</g>
	<path class="st2" d="M2.3,7.1c0.2,0.2,0.6,0.5,1.1,0.5c1.2,0,1.7-1.9,3-1.9c0.4,0,0.7,0.2,0.8,0.3c0.7,0.5,0.9,1.6,0.6,2.4
		c-0.4,1-1.6,1.6-2.7,1.3"/>
	<path class="st2" d="M7.3,11.9c0,0,1.1,0.2,1.4,1c0.3,0.7-0.2,1.4-0.3,1.6c-0.5,0.8-1.2,0.7-1.7,1.3c-0.3,0.3-0.5,0.9-0.5,1.9"/>
	<path class="st2" d="M7.9,18.6c-0.1-0.1-1.1-0.9-2.4-0.6c-1,0.2-1.6,1-1.7,1.2"/>
	<path class="st2" d="M7.8,3.2C7.7,3,7.5,2.6,7.1,2.2C6.8,1.9,6.4,1.7,6.2,1.6"/>
	<path class="st2" d="M4.9,11.9c-0.1,0.1-0.4,0.7-1,0.9c-0.8,0.3-1.5,0-1.6-0.1"/>
	<g>
		<path class="st2" d="M9.2,8"/>
	</g>
	<path class="st0" d="M9,21.4"/>
	<g>
		<path class="st1" d="M15.6,1.1c0.2,0,0.5,0,0.7,0.1c0.4,0.1,0.6,0.4,0.7,0.5c0.2,0.2,0.5,0.4,0.8,0.4c0.1,0,0.1,0,0.2,0
			s0.3,0,0.4,0c0.3,0,0.5,0,0.7,0.1c0.5,0.2,0.8,0.5,1.1,0.9c0.2,0.3,0.5,0.6,0.7,0.9c0.2,0.4,0.4,0.8,0.5,1.3s0.1,1,0,1.6
			c-0.1,0.4,0.1,0.8,0.4,1c0.3,0.2,0.5,0.4,0.7,0.7c0.5,0.8,0.5,2,0,2.8c-0.2,0.3-0.4,0.5-0.7,0.7c-0.2,0.1-0.4,0.4-0.4,0.6
			c0,0.3,0,0.5,0.1,0.8c0.2,0.2,0.3,0.5,0.4,0.7s0.2,0.7,0.2,1.5c0,0.9-0.1,1.5-0.5,2c-0.2,0.2-0.5,0.4-1.1,0.5
			c-0.3,0-0.5,0.2-0.7,0.5c-0.1,0.3-0.2,0.6,0,0.8c0.1,0.3,0.2,0.8,0.1,1.3c-0.2,0.6-0.8,1-1.3,1.3c-0.4,0.2-1.5,0.8-2.5,0.8
			c-0.4,0-0.7-0.1-1-0.2c-0.3-0.2-0.7-0.4-1.1-1.3c-0.7-1.8-0.6-4.3-0.6-7.2c0-1.8,0.1-3.9-0.1-6.1c-0.2-2.8,0.1-5.8,0.5-6.2
			c0.3-0.2,0.6-0.3,0.6-0.3s0.2-0.1,0.4-0.2C15,1.2,15.2,1.1,15.6,1.1 M15.6,0.1c-0.5,0-0.8,0.1-1,0.2C14.3,0.4,14,0.5,14,0.5
			s-0.4,0.2-0.7,0.4c-1.4,0.9-1,7.1-1,7.1c0.4,5.5-0.6,10.3,0.7,13.6c0.4,1.1,1,1.6,1.5,1.9c0.5,0.2,1,0.3,1.4,0.3
			c1.4,0,2.8-0.8,3-0.9c0.6-0.4,1.5-0.9,1.8-1.9c0.3-0.8,0-1.6-0.1-1.9c0.9-0.2,1.4-0.6,1.6-0.8c0.7-0.7,0.7-1.7,0.8-2.6
			c0-1-0.2-1.7-0.3-1.9c-0.1-0.4-0.3-0.7-0.5-0.9c0.3-0.2,0.7-0.5,1-1c0.7-1.1,0.7-2.7,0-3.9c-0.3-0.5-0.7-0.8-1-1
			c0.1-0.4,0.2-1.1,0-1.9c-0.1-0.7-0.4-1.3-0.6-1.6s-0.4-0.7-0.8-1.1S20,1.5,19.3,1.3c-0.2-0.1-0.6-0.2-1.1-0.2
			c-0.2,0-0.4,0-0.6,0.1C17.4,1,17,0.6,16.5,0.4C16.2,0.2,15.9,0.1,15.6,0.1L15.6,0.1z"/>
	</g>
	<path class="st2" d="M21.7,7.1c-0.2,0.2-0.6,0.5-1.1,0.5c-1.2,0-1.7-1.9-3-1.9c-0.4,0-0.7,0.2-0.8,0.3c-0.7,0.5-0.9,1.6-0.6,2.4
		c0.4,0.9,1.6,1.5,2.7,1.2"/>
	<path class="st2" d="M16.7,11.9c0,0-1.1,0.2-1.4,1c-0.3,0.7,0.2,1.4,0.3,1.6c0.5,0.8,1.2,0.7,1.7,1.3c0.3,0.3,0.5,0.9,0.5,1.9"/>
	<path class="st2" d="M16.1,18.6c0.1-0.1,1.1-0.9,2.4-0.6c1,0.2,1.6,1,1.7,1.2"/>
	<path class="st2" d="M16.2,3.2c0.1-0.2,0.2-0.6,0.6-1c0.4-0.3,0.7-0.5,0.9-0.6"/>
	<path class="st2" d="M19.1,11.9c0.1,0.1,0.4,0.7,1,0.9c0.8,0.3,1.5,0,1.6-0.1"/>
	<g>
		<path class="st2" d="M14.8,8"/>
	</g>
	<path class="st0" d="M15,21.4"/>
</g>
</svg>
