<?xml version="1.0" encoding="UTF-8" standalone="no"?>
<!DOCTYPE svg PUBLIC "-//W3C//DTD SVG 1.1//EN" "http://www.w3.org/Graphics/SVG/1.1/DTD/svg11.dtd">
<svg width="100%" height="100%" viewBox="0 0 350 100" version="1.1" xmlns="http://www.w3.org/2000/svg" xmlns:xlink="http://www.w3.org/1999/xlink" xml:space="preserve" xmlns:serif="http://www.serif.com/" style="fill-rule:evenodd;clip-rule:evenodd;stroke-linejoin:round;stroke-miterlimit:2;">
    <g transform="matrix(0.927565,0,0,1.05636,241.459,3.67552)">
        <g>
            <g id="path4636" transform="matrix(0.342513,0,0,0.302358,-264.577,-7.53497)">
                <path d="M92.1,320C70.1,312.6 55,296.3 36.9,260.4C30.4,247.5 28.7,241 33.9,249.6C50.4,276.4 65.7,293.4 79.4,300C90.4,305.3 94.6,306.2 108.3,306.2C118.9,306.2 121.4,305.8 131.6,303C142.4,300.1 143.9,299.9 159.5,299.6C178.1,299.3 183.7,298.3 194,293.4C223.1,279.4 248.4,240.6 257.7,195.8C259.4,187.6 259.8,182.7 259.7,169.3C259.6,154.7 259.4,151.9 257.2,144C254.2,132.9 249.1,123.6 242.4,116.6C233.3,107.2 223.3,103.1 209.1,103.1C198.5,103.1 188.1,105.9 172,113.1C165.4,116 158.4,118.9 156.3,119.6C150.1,121.5 133.9,120.8 124.6,118.4C112.9,115.3 113.7,114.3 128,114.4C144.2,114.4 148,113.1 165.7,101.8C191,85.6 209.1,81.6 228.9,88.1C259.4,98.1 279.1,137.3 277,183.9C276.1,204.3 272.6,221 264.4,243.8C250,283.8 228.6,311.1 204.3,320.3C203.9,320.5 203.5,320.6 203,320.7C193.8,323.7 181.6,326.5 150.2,326.5C117.1,326.4 103.4,323.3 95.4,321C94.1,320.6 92.9,320.2 92.1,320ZM19.8,218.7C14,201.3 11.8,183.8 12.6,162.7C13.3,144.6 15.5,135 21.5,123.1C32.9,100.5 52.2,89.5 80.4,89.5C90.1,89.5 94,90 106.5,92.8C124.6,96.8 132.8,98.3 134.1,97.5C136.6,96 133,77.8 127,62C124,54 123.1,50.6 123.8,49.4C126.5,44.5 138,44.5 140.7,49.4C141.2,50.3 142.2,61.6 142.8,74.5L144,98L153.5,98C159.6,98 162.7,98.3 162.1,98.9C161.3,99.7 153.3,101.8 146.3,103C144.2,103.4 143.7,104 143.5,106.4C143.2,109.1 142.9,109.4 140,109.4C136.9,109.4 135.9,108.6 134.8,105.2C134.4,104 131.6,103.6 116.9,102.9C83.7,101.3 75.2,102.2 60.5,108.9C39.1,118.6 25.3,138.1 20,166.4C18,177 18.4,201.9 20.9,214.7C22,220.4 22.8,225.3 22.6,225.5C22.4,225.7 21.1,222.6 19.8,218.7ZM270.2,75.5C265,73.4 255.4,68.6 249,65C230.2,54.3 219.2,51.4 201.6,52.4C182.6,53.5 166,60 151.3,72C148.5,74.3 146,75.8 145.7,75.5C144.4,74.3 148,69.7 155.9,62C163,55.2 165.5,53.5 174,49.5C187.3,43.3 197.7,41 212.3,41C226,41 233.9,42.6 244.5,47.7C248.6,49.7 252.1,51.3 252.3,51.3C253.3,51.3 252.4,48 250.4,44.2C242.8,29.8 229.7,22.1 212.9,22.1C197.4,22.1 183.8,28.1 172.8,39.8C167.9,45 167.4,42.5 172,36C179.5,25.3 192,17 205,14.3C211.8,12.9 223.1,13.2 230,14.9C247.1,19.1 257.7,29.8 267,52.5C271,62.2 275.4,70.3 278.7,74.4C280.4,76.4 281.2,78.2 280.7,78.7C280.1,79.1 275.8,77.8 270.2,75.5Z" style="fill:rgb(169,63,74);fill-rule:nonzero;"/>
            </g>
            <g transform="matrix(1.99751,0,0,1.75446,-342.733,-57.8152)">
                <text x="89.731px" y="55.15px" style="font-family:'Merriweather-BoldItalic', 'Merriweather';font-weight:700;font-style:italic;font-size:30px;fill:rgb(48,60,70);">R<tspan x="111.001px 129.271px 147.361px 163.621px 176.611px 187.861px 195.571px 215.911px " y="55.15px 55.15px 55.15px 55.15px 55.15px 55.15px 55.15px 55.15px ">obert A.</tspan></text>
                <text x="89.731px" y="84.537px" style="font-family:'Merriweather-BoldItalic', 'Merriweather';font-weight:700;font-style:italic;font-size:30px;fill:rgb(48,60,70);">S<tspan x="106.921px 117.181px 126.931px 144.031px 170.161px 188.431px 201.421px 212.671px " y="84.537px 84.537px 84.537px 84.537px 84.537px 84.537px 84.537px 84.537px ">ilkworth</tspan></text>
            </g>
        </g>
    </g>
</svg>
