<?xml version="1.0" encoding="utf-8"?>
<!-- Generator: Adobe Illustrator 24.0.1, SVG Export Plug-In . SVG Version: 6.00 Build 0)  -->
<svg version="1.1" id="Layer_1" xmlns="http://www.w3.org/2000/svg" xmlns:xlink="http://www.w3.org/1999/xlink" x="0px" y="0px"
	 viewBox="0 0 24 24" style="enable-background:new 0 0 24 24;" xml:space="preserve">
<style type="text/css">
	.st0{fill:none;stroke:#303c46;stroke-linecap:round;stroke-linejoin:round;stroke-miterlimit:10;}
	.st1{fill:none;stroke:#303c46;stroke-width:0.5;stroke-linecap:round;stroke-linejoin:round;stroke-miterlimit:10;}
	.st2{fill:none;stroke:#303c46;stroke-width:0.25;stroke-linecap:round;stroke-linejoin:round;stroke-miterlimit:10;}
</style>
<g>
	<rect x="0.6" y="10.9" class="st0" width="22.9" height="12.2"/>
	<g>
		<path class="st0" d="M12,1c-0.4,0-0.8,0.3-1.9,1.6c-0.8,1-1.4,1.8-1.9,2.5c0,1.9,0,3.9,0,5.8h7.5V5.1c-0.5-0.7-1.1-1.5-1.9-2.5
			C12.8,1.3,12.4,1,12,1z"/>
		<line class="st1" x1="9.5" y1="5.6" x2="14.5" y2="5.6"/>
		<g>
			<circle class="st1" cx="12" cy="8.1" r="1.4"/>
			<polyline class="st2" points="12,7.3 12,8.1 11.7,8.6 			"/>
		</g>
	</g>
	<g>
		<g>
			<rect x="2.7" y="17" class="st1" width="4.7" height="4.2"/>
			<line class="st2" x1="5" y1="17" x2="5" y2="21.2"/>
			<line class="st2" x1="2.7" y1="19.1" x2="7.3" y2="19.1"/>
		</g>
		<g>
			<rect x="16.7" y="17" class="st1" width="4.7" height="4.2"/>
			<line class="st2" x1="19" y1="17" x2="19" y2="21.2"/>
			<line class="st2" x1="16.7" y1="19.1" x2="21.4" y2="19.1"/>
		</g>
	</g>
	<g>
		<path class="st2" d="M12,17.9c0,5.1,0,5.1,0,5.1"/>
	</g>
	<g>
		<rect x="9.2" y="12.6" class="st1" width="5.6" height="3.7"/>
		<line class="st2" x1="12" y1="12.6" x2="12" y2="16.3"/>
	</g>
	<line class="st2" x1="9.2" y1="14.2" x2="14.8" y2="14.2"/>
</g>
<path class="st1" d="M14.8,23H9.2l0.1-4.4c0.5-0.2,1.4-0.7,2.7-0.7c1.3,0,2.3,0.4,2.8,0.7V23z"/>
</svg>
