<?xml version="1.0" encoding="utf-8"?>
<!-- Generator: Adobe Illustrator 24.0.1, SVG Export Plug-In . SVG Version: 6.00 Build 0)  -->
<svg version="1.1" id="Layer_1" xmlns="http://www.w3.org/2000/svg" xmlns:xlink="http://www.w3.org/1999/xlink" x="0px" y="0px"
	 viewBox="0 0 24 24" style="enable-background:new 0 0 24 24;" xml:space="preserve">
<style type="text/css">
	.st0{fill:#8DB1D9;}
	.st1{fill:#303C46;}
</style>
<g>
	<g>
		<path class="st0" d="M15.8,2.5c1.8,0.8,4.5,1.9,5.9,2.3C22.8,5,23.4,6,23.2,7.1c-0.8,3.7-2.6,9.4-7.3,13.9
			c-0.9,0.9-1.8,1.6-2.8,2.3L12,23.6V0.5L15.8,2.5z"/>
	</g>
	<g>
		<path class="st1" d="M12.1,1.1c0.2,0,0.4,0.1,0.6,0.2C14,2.2,15.3,3,16.8,3.6c1.7,0.8,3.5,1.4,5.4,1.8c0.6,0.1,1,0.7,0.9,1.3
			c-0.8,3.9-2.8,9.4-7.6,13.8c-0.9,0.8-1.8,1.6-2.8,2.2c-0.2,0.1-0.4,0.2-0.6,0.2c-0.2,0-0.4-0.1-0.6-0.2c-1-0.7-1.9-1.4-2.8-2.2
			C3.8,16.1,1.9,10.5,1,6.7C0.9,6.1,1.3,5.5,1.9,5.4c1.9-0.4,3.7-1,5.4-1.8c1.5-0.7,2.9-1.4,4.2-2.3C11.6,1.2,11.9,1.1,12.1,1.1
			 M12.1,0.1c-0.4,0-0.8,0.1-1.1,0.4C9.8,1.2,8.4,2,6.9,2.7C5,3.6,3.2,4.1,1.6,4.4C0.5,4.7-0.2,5.7,0.1,6.9
			c0.8,3.9,2.8,9.7,7.8,14.3c1,0.9,2,1.7,2.9,2.3c0.4,0.2,0.8,0.4,1.2,0.4s0.8-0.1,1.2-0.4c1-0.7,2-1.4,3-2.3c5-4.7,7-10.5,7.8-14.3
			c0.2-1.1-0.5-2.2-1.6-2.4c-1.5-0.3-3.3-0.9-5.2-1.7c-1.5-0.7-2.8-1.5-3.9-2.2C12.9,0.3,12.5,0.1,12.1,0.1L12.1,0.1z"/>
	</g>
</g>
</svg>
